#N canvas 0 96 1351 660 10;
#X obj 423 559 dac~;
#X obj 909 47 hsl 128 15 0 1 0 0 empty empty TremoloDepth -2 -8 0 10
-262144 -1 -1 0 1;
#X obj 1053 47 hsl 128 15 0 1 0 0 empty empty FilterDepth -2 -8 0 10
-262144 -1 -1 0 1;
#X obj 1197 47 hsl 128 15 0 1 0 0 empty empty Resonance -2 -8 0 10
-262144 -1 -1 0 1;
#X obj 1203 68 r Channel-D;
#X obj 1060 68 r Channel-C;
#X obj 919 68 r Channel-B;
#X obj 908 194 hsl 128 15 0 1 0 0 empty empty Speed -2 -8 0 10 -262144
-1 -1 3500 1;
#X obj 422 313 adc~;
#X obj 1049 114 + 0;
#X obj 1048 194 hsl 128 15 0 1 0 0 empty empty Speed_(Exp) -2 -8 0
10 -262144 -1 -1 0 1;
#X obj 1045 261 + 0;
#X obj 1054 215 r Channel-E;
#X obj 915 215 r Channel-A;
#X obj 504 168 osc~;
#X obj 422 374 *~;
#X obj 444 374 *~;
#X obj 504 231 *~ 0.5;
#X obj 904 261 + 0.01;
#X obj 906 96 * 1;
#X obj 905 115 + 0;
#X text 903 354 Hertz;
#X obj 905 135 s \$0tremDepth;
#X obj 542 265 r \$0tremDepth;
#X obj 504 282 *~;
#X obj 503 358 +~;
#X obj 542 341 -;
#X obj 504 210 +~ 1;
#X msg 542 319 1;
#X obj 542 292 t b f;
#X obj 1049 135 s \$0filterDepth;
#X obj 714 202 r \$0filterDepth;
#X obj 670 219 *~;
#X obj 671 292 +~;
#X obj 714 275 -;
#X msg 714 253 1;
#X obj 714 226 t b f;
#X obj 671 131 osc~;
#X obj 671 172 *~ 0.5;
#X obj 671 151 +~ 1;
#X obj 671 384 pow~;
#X obj 671 317 loadbang;
#X msg 671 340 1.01;
#X obj 1050 93 * 0.1;
#X obj 671 363 sig~;
#X obj 1192 114 + 1;
#X obj 1194 93 * 4;
#X obj 1192 137 s \$0filterResonance;
#X obj 455 397 r \$0filterResonance;
#X obj 422 421 vcf~ 1;
#X obj 763 308 *~ 2000;
#X obj 671 405 /~ 300000;
#X obj 422 519 *~;
#X obj 437 476 / 2;
#X obj 437 497 + 0.5;
#X obj 437 455 r \$0filterResonance;
#X obj 905 240 * 20;
#X obj 1045 240 * 20;
#X obj 904 312 +;
#X obj 1045 285 t b f;
#X obj 200 115 r Channel-Push;
#X obj 160 141 bng 15 250 50 0 empty empty empty 17 7 0 10 -262144
-1 -1;
#X obj 200 258 /;
#X obj 200 217 t b f;
#X msg 200 238 1000;
#N canvas 647 111 598 564 tapTempo 0;
#X obj 90 126 t b b;
#X obj 90 175 timer;
#X obj 244 231 s \$0timeout;
#X obj 244 183 > 5;
#X obj 244 206 sel 1;
#X obj 313 131 r \$0timeout;
#X obj 244 89 r \$0timeout;
#X msg 244 109 0;
#X obj 244 131 metro 1000;
#X obj 90 242 spigot;
#X msg 123 202 1;
#X obj 138 173 r \$0timeout;
#X msg 156 202 0;
#X text 129 20 Tap/Tempo;
#X obj 90 273 outlet;
#X text 136 273 Milliseconds;
#X obj 178 114 t b b;
#N canvas 693 289 298 237 counter 0;
#X obj 26 145 + 1;
#X obj 50 145 i;
#X msg 94 112 0;
#X obj 50 22 inlet;
#X obj 150 22 inlet;
#X text 47 5 Bang;
#X text 149 6 Reset;
#X obj 26 177 outlet;
#X text 24 197 Count;
#X connect 0 0 1 1;
#X connect 0 0 7 0;
#X connect 1 0 0 0;
#X connect 2 0 1 0;
#X connect 3 0 1 0;
#X connect 4 0 2 0;
#X restore 244 156 pd counter;
#X obj 90 20 inlet;
#X connect 0 0 1 0;
#X connect 0 0 10 0;
#X connect 0 1 1 1;
#X connect 1 0 9 0;
#X connect 3 0 4 0;
#X connect 4 0 2 0;
#X connect 5 0 17 1;
#X connect 6 0 7 0;
#X connect 7 0 8 0;
#X connect 8 0 17 0;
#X connect 9 0 14 0;
#X connect 10 0 9 1;
#X connect 11 0 12 0;
#X connect 12 0 9 1;
#X connect 16 0 17 1;
#X connect 16 1 8 0;
#X connect 17 0 3 0;
#X connect 18 0 0 0;
#X connect 18 0 16 0;
#X restore 200 196 pd tapTempo;
#X obj 200 314 +;
#X obj 200 281 t b f;
#X obj 200 135 sel 1;
#X floatatom 153 354 5 0 0 0 - - -, f 5;
#X floatatom 154 275 5 0 0 0 - - -, f 5;
#X floatatom 249 342 5 0 0 0 - - -, f 5;
#X obj 249 320 f;
#X obj 200 337 -;
#X obj 200 156 s \$0tap;
#X obj 200 175 r \$0tap;
#X obj 249 273 r \$0tap;
#X obj 102 297 r \$0speedCtrl;
#X obj 264 296 r \$0speedCtrl;
#X obj 904 338 s \$0speedCtrl;
#X obj 200 360 s \$0tremSpeed;
#X obj 504 111 r \$0tremSpeed;
#X obj 671 111 r \$0tremSpeed;
#X text 198 92 Tap Tempo;
#X text 499 91 Amplitude Oscillator;
#X text 666 89 Filter Oscillator;
#X obj 401 184 snapshot~;
#X obj 401 206 > 0;
#X obj 401 228 s Channel-LED;
#X obj 401 136 loadbang;
#X obj 401 162 metro 10;
#X connect 1 0 19 0;
#X connect 2 0 43 0;
#X connect 3 0 46 0;
#X connect 4 0 46 0;
#X connect 5 0 43 0;
#X connect 6 0 19 0;
#X connect 7 0 56 0;
#X connect 8 0 15 0;
#X connect 8 1 16 0;
#X connect 9 0 30 0;
#X connect 10 0 57 0;
#X connect 11 0 59 0;
#X connect 12 0 57 0;
#X connect 13 0 56 0;
#X connect 14 0 27 0;
#X connect 14 0 86 0;
#X connect 15 0 49 0;
#X connect 15 0 52 0;
#X connect 16 0 0 1;
#X connect 17 0 24 0;
#X connect 18 0 58 0;
#X connect 19 0 20 0;
#X connect 20 0 22 0;
#X connect 23 0 24 1;
#X connect 23 0 29 0;
#X connect 24 0 25 0;
#X connect 25 0 16 1;
#X connect 25 0 15 1;
#X connect 26 0 25 1;
#X connect 27 0 17 0;
#X connect 28 0 26 0;
#X connect 29 0 28 0;
#X connect 29 1 26 1;
#X connect 31 0 32 1;
#X connect 31 0 36 0;
#X connect 32 0 33 0;
#X connect 33 0 50 0;
#X connect 34 0 33 1;
#X connect 35 0 34 0;
#X connect 36 0 35 0;
#X connect 36 1 34 1;
#X connect 37 0 39 0;
#X connect 38 0 32 0;
#X connect 39 0 38 0;
#X connect 40 0 51 0;
#X connect 41 0 42 0;
#X connect 42 0 44 0;
#X connect 43 0 9 0;
#X connect 44 0 40 0;
#X connect 45 0 47 0;
#X connect 46 0 45 0;
#X connect 48 0 49 2;
#X connect 49 0 52 0;
#X connect 50 0 40 1;
#X connect 51 0 49 1;
#X connect 52 0 0 0;
#X connect 53 0 54 0;
#X connect 54 0 52 1;
#X connect 55 0 53 0;
#X connect 56 0 18 0;
#X connect 57 0 11 0;
#X connect 58 0 79 0;
#X connect 59 0 58 0;
#X connect 59 1 58 1;
#X connect 60 0 68 0;
#X connect 61 0 74 0;
#X connect 62 0 67 0;
#X connect 62 0 70 0;
#X connect 63 0 64 0;
#X connect 63 1 62 1;
#X connect 64 0 62 0;
#X connect 65 0 63 0;
#X connect 66 0 73 0;
#X connect 67 0 66 0;
#X connect 67 1 66 1;
#X connect 68 0 74 0;
#X connect 72 0 71 0;
#X connect 72 0 73 1;
#X connect 73 0 69 0;
#X connect 73 0 80 0;
#X connect 75 0 65 0;
#X connect 76 0 72 0;
#X connect 77 0 66 0;
#X connect 78 0 72 1;
#X connect 81 0 14 0;
#X connect 82 0 37 0;
#X connect 86 0 87 0;
#X connect 87 0 88 0;
#X connect 89 0 90 0;
#X connect 90 0 86 0;
