#N canvas 222 0 844 592 10;
#X obj 285 44 hsl 128 15 0 1 0 0 empty empty Parameter_B -2 -8 0 10
-262144 -1 -1 0 1;
#X obj 137 201 hsl 128 15 0 1 0 0 empty empty Parameter_C -2 -8 0 10
-262144 -1 -1 0 1;
#X obj 281 201 hsl 128 15 0 1 0 0 empty empty Parameter_D -2 -8 0 10
-262144 -1 -1 0 1;
#X obj 287 222 r Channel-D;
#X obj 144 222 r Channel-C;
#X obj 295 65 r Channel-B;
#X obj 140 44 hsl 128 15 0 1 0 0 empty empty Parameter_A -2 -8 0 10
-262144 -1 -1 0 1;
#X obj 147 65 r Channel-A;
#X obj 281 112 + 0;
#X obj 134 247 * 1;
#X obj 133 268 + 0;
#X obj 278 247 * 1;
#X obj 276 268 + 0;
#X obj 211 326 hsl 128 15 0 1 0 0 empty empty Parameter_E -2 -8 0 10
-262144 -1 -1 0 1;
#X obj 208 372 * 1;
#X obj 206 393 + 0;
#X obj 217 347 r Channel-E;
#X obj 136 132 s \$0-threshold;
#X obj 136 111 + 30;
#X obj 137 90 * 60;
#X obj 281 132 s \$0-response;
#X obj 100 656 *~;
#X obj 115 459 env~;
#X obj 176 441 r \$0-threshold;
#X obj 115 509 < 50;
#X obj 115 531 sel 1;
#X msg 115 553 0, f 1;
#X msg 155 553 1, f 1;
#X obj 155 509 > 50;
#X obj 155 531 sel 1;
#X obj 176 486 + 7;
#X obj 115 624 line~;
#X obj 160 582 r \$0-response;
#X obj 115 603 pack f f;
#X obj 101 429 adc~ 1;
#X obj 100 687 dac~ 1;
#X obj 288 654 *~;
#X obj 303 457 env~;
#X obj 364 439 r \$0-threshold;
#X obj 303 507 < 50;
#X obj 303 529 sel 1;
#X msg 303 551 0, f 1;
#X msg 343 551 1, f 1;
#X obj 343 507 > 50;
#X obj 343 529 sel 1;
#X obj 364 484 + 7;
#X obj 303 622 line~;
#X obj 348 580 r \$0-response;
#X obj 303 601 pack f f;
#X obj 289 427 adc~ 2;
#X obj 288 685 dac~ 2;
#X obj 282 91 * 40;
#X connect 0 0 51 0;
#X connect 1 0 9 0;
#X connect 2 0 11 0;
#X connect 3 0 11 0;
#X connect 4 0 9 0;
#X connect 5 0 51 0;
#X connect 6 0 19 0;
#X connect 7 0 19 0;
#X connect 8 0 20 0;
#X connect 9 0 10 0;
#X connect 11 0 12 0;
#X connect 13 0 14 0;
#X connect 14 0 15 0;
#X connect 16 0 14 0;
#X connect 18 0 17 0;
#X connect 19 0 18 0;
#X connect 21 0 35 0;
#X connect 22 0 24 0;
#X connect 22 0 28 0;
#X connect 23 0 24 1;
#X connect 23 0 30 0;
#X connect 24 0 25 0;
#X connect 25 0 26 0;
#X connect 26 0 33 0;
#X connect 27 0 33 0;
#X connect 28 0 29 0;
#X connect 29 0 27 0;
#X connect 30 0 28 1;
#X connect 31 0 21 1;
#X connect 32 0 33 1;
#X connect 33 0 31 0;
#X connect 34 0 22 0;
#X connect 34 0 21 0;
#X connect 36 0 50 0;
#X connect 37 0 39 0;
#X connect 37 0 43 0;
#X connect 38 0 39 1;
#X connect 38 0 45 0;
#X connect 39 0 40 0;
#X connect 40 0 41 0;
#X connect 41 0 48 0;
#X connect 42 0 48 0;
#X connect 43 0 44 0;
#X connect 44 0 42 0;
#X connect 45 0 43 1;
#X connect 46 0 36 1;
#X connect 47 0 48 1;
#X connect 48 0 46 0;
#X connect 49 0 37 0;
#X connect 49 0 36 0;
#X connect 51 0 8 0;
