#N canvas 90 70 783 575 10;
#X obj -9 18 adc~;
#X obj -24 267 dac~;
#X obj 507 225 r Channel-D;
#X obj 446 472 r Channel-C;
#X obj 314 474 r Channel-B;
#X obj 334 79 r Channel-A;
#X obj 301 506 s \$0-volume-1;
#X obj 436 504 s \$0-volume0;
#X obj 304 453 hsl 128 15 0 1 0 0 empty empty Parameter_B -2 -8 0 10
-262144 -1 -1 0 1;
#X obj 439 451 hsl 128 15 0 1 0 0 empty empty Parameter_C -2 -8 0 10
-262144 -1 -1 0 1;
#X obj 501 204 hsl 128 15 0 1 0 0 empty empty Parameter_D -2 -8 0 10
-262144 -1 -1 2200 1;
#X obj 327 58 hsl 128 15 0 1 0 0 empty empty Parameter_A -2 -8 0 10
-262144 -1 -1 600 1;
#X obj -8 108 *~;
#X obj 22 108 *~;
#X obj 37 74 osc~;
#X obj 324 111 * 2000;
#X obj 324 131 + 1;
#X obj 37 53 r \$0frequency;
#X obj 472 58 hsl 128 15 0 1 0 0 empty empty Parameter_E -2 -8 0 10
-262144 -1 -1 0 1;
#X obj 469 99 * 2000;
#X obj 487 75 r Channel-E;
#X obj 324 184 +;
#X obj 323 207 s \$0frequency;
#X obj 333 157 t b f;
#X obj 498 257 s \$0dryWet;
#X obj 100 119 r \$0dryWet;
#X obj 100 189 -;
#X msg 100 167 1;
#X obj 100 146 t b f;
#X obj -7 136 *~;
#X obj 23 136 *~;
#X obj -23 239 +~;
#X obj -84 206 *~;
#X obj -61 206 *~;
#X obj 9 239 +~;
#X obj -83 170 adc~;
#X obj 216 196 snapshot~;
#X obj 217 157 metro 10;
#X obj 215 122 tgl 15 0 empty empty empty 17 7 0 10 -262144 -1 -1 1
1;
#X obj 227 320 s Channel-Push;
#X obj 220 233 > 0;
#X connect 0 0 12 0;
#X connect 0 1 13 0;
#X connect 2 0 24 0;
#X connect 3 0 7 0;
#X connect 4 0 6 0;
#X connect 5 0 15 0;
#X connect 8 0 6 0;
#X connect 9 0 7 0;
#X connect 10 0 24 0;
#X connect 11 0 15 0;
#X connect 12 0 29 0;
#X connect 13 0 30 0;
#X connect 14 0 12 1;
#X connect 14 0 13 1;
#X connect 14 0 36 0;
#X connect 15 0 16 0;
#X connect 16 0 21 0;
#X connect 17 0 14 0;
#X connect 18 0 19 0;
#X connect 19 0 23 0;
#X connect 20 0 19 0;
#X connect 21 0 22 0;
#X connect 23 0 21 0;
#X connect 23 1 21 1;
#X connect 25 0 28 0;
#X connect 25 0 30 1;
#X connect 25 0 29 1;
#X connect 26 0 32 1;
#X connect 26 0 33 1;
#X connect 27 0 26 0;
#X connect 28 0 27 0;
#X connect 28 1 26 1;
#X connect 29 0 31 1;
#X connect 30 0 34 1;
#X connect 31 0 1 0;
#X connect 32 0 31 0;
#X connect 33 0 34 0;
#X connect 34 0 1 1;
#X connect 35 0 32 0;
#X connect 35 1 33 0;
#X connect 36 0 40 0;
#X connect 37 0 36 0;
#X connect 38 0 37 0;
#X connect 40 0 39 0;
#X coords 0 0 1 1 85 60 0;
